<svg width="1126" height="288" viewBox="0 0 1126 288" fill="none" xmlns="http://www.w3.org/2000/svg">
<path d="M24.6989 14.2102V13.3409L28.5341 7.27273H29.1648V8.61932H28.7386L25.8409 13.2045V13.2727H31.0057V14.2102H24.6989ZM28.8068 16V13.946V13.5412V7.27273H29.8125V16H28.8068ZM35.4492 16.1193C34.8072 16.1193 34.2603 15.9446 33.8086 15.5952C33.3569 15.2429 33.0117 14.733 32.7731 14.0653C32.5344 13.3949 32.4151 12.5852 32.4151 11.6364C32.4151 10.6932 32.5344 9.88778 32.7731 9.22017C33.0146 8.54972 33.3612 8.03835 33.8129 7.68608C34.2674 7.33097 34.8129 7.15341 35.4492 7.15341C36.0856 7.15341 36.6296 7.33097 37.0813 7.68608C37.5359 8.03835 37.8825 8.54972 38.1211 9.22017C38.3626 9.88778 38.4833 10.6932 38.4833 11.6364C38.4833 12.5852 38.364 13.3949 38.1254 14.0653C37.8867 14.733 37.5415 15.2429 37.0898 15.5952C36.6381 15.9446 36.0913 16.1193 35.4492 16.1193ZM35.4492 15.1818C36.0856 15.1818 36.5799 14.875 36.9322 14.2614C37.2844 13.6477 37.4606 12.7727 37.4606 11.6364C37.4606 10.8807 37.3796 10.2372 37.2177 9.70597C37.0586 9.17472 36.8285 8.76989 36.5273 8.49148C36.229 8.21307 35.8697 8.07386 35.4492 8.07386C34.8185 8.07386 34.3256 8.38494 33.9705 9.0071C33.6154 9.62642 33.4379 10.5028 33.4379 11.6364C33.4379 12.392 33.5174 13.0341 33.6765 13.5625C33.8356 14.0909 34.0643 14.4929 34.3626 14.7685C34.6637 15.044 35.0259 15.1818 35.4492 15.1818ZM42.9492 16.1193C42.3072 16.1193 41.7603 15.9446 41.3086 15.5952C40.8569 15.2429 40.5117 14.733 40.2731 14.0653C40.0344 13.3949 39.9151 12.5852 39.9151 11.6364C39.9151 10.6932 40.0344 9.88778 40.2731 9.22017C40.5146 8.54972 40.8612 8.03835 41.3129 7.68608C41.7674 7.33097 42.3129 7.15341 42.9492 7.15341C43.5856 7.15341 44.1296 7.33097 44.5813 7.68608C45.0359 8.03835 45.3825 8.54972 45.6211 9.22017C45.8626 9.88778 45.9833 10.6932 45.9833 11.6364C45.9833 12.5852 45.864 13.3949 45.6254 14.0653C45.3867 14.733 45.0415 15.2429 44.5898 15.5952C44.1381 15.9446 43.5913 16.1193 42.9492 16.1193ZM42.9492 15.1818C43.5856 15.1818 44.0799 14.875 44.4322 14.2614C44.7844 13.6477 44.9606 12.7727 44.9606 11.6364C44.9606 10.8807 44.8796 10.2372 44.7177 9.70597C44.5586 9.17472 44.3285 8.76989 44.0273 8.49148C43.729 8.21307 43.3697 8.07386 42.9492 8.07386C42.3185 8.07386 41.8256 8.38494 41.4705 9.0071C41.1154 9.62642 40.9379 10.5028 40.9379 11.6364C40.9379 12.392 41.0174 13.0341 41.1765 13.5625C41.3356 14.0909 41.5643 14.4929 41.8626 14.7685C42.1637 15.044 42.5259 15.1818 42.9492 15.1818Z" fill="#9D9FA2"/>
<path d="M27.8523 76.1193C27.2898 76.1193 26.7884 76.0227 26.348 75.8295C25.9105 75.6364 25.5625 75.3679 25.304 75.0241C25.0483 74.6776 24.9091 74.2756 24.8864 73.8182H25.9602C25.983 74.0994 26.0795 74.3423 26.25 74.5469C26.4205 74.7486 26.6435 74.9048 26.919 75.0156C27.1946 75.1264 27.5 75.1818 27.8352 75.1818C28.2102 75.1818 28.5426 75.1165 28.8324 74.9858C29.1222 74.8551 29.3494 74.6733 29.5142 74.4403C29.679 74.2074 29.7614 73.9375 29.7614 73.6307C29.7614 73.3097 29.6818 73.027 29.5227 72.7827C29.3636 72.5355 29.1307 72.3423 28.8239 72.2031C28.517 72.0639 28.142 71.9943 27.6989 71.9943H27V71.0568H27.6989C28.0455 71.0568 28.3494 70.9943 28.6108 70.8693C28.875 70.7443 29.081 70.5682 29.2287 70.3409C29.3793 70.1136 29.4545 69.8466 29.4545 69.5398C29.4545 69.2443 29.3892 68.9872 29.2585 68.7685C29.1278 68.5497 28.9432 68.3793 28.7045 68.2571C28.4688 68.1349 28.1903 68.0739 27.8693 68.0739C27.5682 68.0739 27.2841 68.1293 27.017 68.2401C26.7528 68.348 26.5369 68.5057 26.3693 68.7131C26.2017 68.9176 26.1108 69.1648 26.0966 69.4545H25.0739C25.0909 68.9972 25.2287 68.5966 25.4872 68.2528C25.7457 67.9062 26.0838 67.6364 26.5014 67.4432C26.9219 67.25 27.3835 67.1534 27.8864 67.1534C28.4261 67.1534 28.8892 67.2628 29.2756 67.4815C29.6619 67.6974 29.9588 67.983 30.1662 68.3381C30.3736 68.6932 30.4773 69.0767 30.4773 69.4886C30.4773 69.9801 30.348 70.3991 30.0895 70.7457C29.8338 71.0923 29.4858 71.3324 29.0455 71.4659V71.5341C29.5966 71.625 30.027 71.8594 30.3366 72.2372C30.6463 72.6122 30.8011 73.0767 30.8011 73.6307C30.8011 74.1051 30.6719 74.5312 30.4134 74.9091C30.1577 75.2841 29.8082 75.5795 29.3651 75.7955C28.9219 76.0114 28.4176 76.1193 27.8523 76.1193ZM35.3906 76.1193C34.7486 76.1193 34.2017 75.9446 33.75 75.5952C33.2983 75.2429 32.9531 74.733 32.7145 74.0653C32.4759 73.3949 32.3565 72.5852 32.3565 71.6364C32.3565 70.6932 32.4759 69.8878 32.7145 69.2202C32.956 68.5497 33.3026 68.0384 33.7543 67.6861C34.2088 67.331 34.7543 67.1534 35.3906 67.1534C36.027 67.1534 36.571 67.331 37.0227 67.6861C37.4773 68.0384 37.8239 68.5497 38.0625 69.2202C38.304 69.8878 38.4247 70.6932 38.4247 71.6364C38.4247 72.5852 38.3054 73.3949 38.0668 74.0653C37.8281 74.733 37.483 75.2429 37.0312 75.5952C36.5795 75.9446 36.0327 76.1193 35.3906 76.1193ZM35.3906 75.1818C36.027 75.1818 36.5213 74.875 36.8736 74.2614C37.2259 73.6477 37.402 72.7727 37.402 71.6364C37.402 70.8807 37.321 70.2372 37.1591 69.706C37 69.1747 36.7699 68.7699 36.4688 68.4915C36.1705 68.2131 35.8111 68.0739 35.3906 68.0739C34.7599 68.0739 34.267 68.3849 33.9119 69.0071C33.5568 69.6264 33.3793 70.5028 33.3793 71.6364C33.3793 72.392 33.4588 73.0341 33.6179 73.5625C33.777 74.0909 34.0057 74.4929 34.304 74.7685C34.6051 75.044 34.9673 75.1818 35.3906 75.1818ZM42.8906 76.1193C42.2486 76.1193 41.7017 75.9446 41.25 75.5952C40.7983 75.2429 40.4531 74.733 40.2145 74.0653C39.9759 73.3949 39.8565 72.5852 39.8565 71.6364C39.8565 70.6932 39.9759 69.8878 40.2145 69.2202C40.456 68.5497 40.8026 68.0384 41.2543 67.6861C41.7088 67.331 42.2543 67.1534 42.8906 67.1534C43.527 67.1534 44.071 67.331 44.5227 67.6861C44.9773 68.0384 45.3239 68.5497 45.5625 69.2202C45.804 69.8878 45.9247 70.6932 45.9247 71.6364C45.9247 72.5852 45.8054 73.3949 45.5668 74.0653C45.3281 74.733 44.983 75.2429 44.5312 75.5952C44.0795 75.9446 43.5327 76.1193 42.8906 76.1193ZM42.8906 75.1818C43.527 75.1818 44.0213 74.875 44.3736 74.2614C44.7259 73.6477 44.902 72.7727 44.902 71.6364C44.902 70.8807 44.821 70.2372 44.6591 69.706C44.5 69.1747 44.2699 68.7699 43.9688 68.4915C43.6705 68.2131 43.3111 68.0739 42.8906 68.0739C42.2599 68.0739 41.767 68.3849 41.4119 69.0071C41.0568 69.6264 40.8793 70.5028 40.8793 71.6364C40.8793 72.392 40.9588 73.0341 41.1179 73.5625C41.277 74.0909 41.5057 74.4929 41.804 74.7685C42.1051 75.044 42.4673 75.1818 42.8906 75.1818Z" fill="#9D9FA2"/>
<path d="M24.9034 136V135.233L27.7841 132.08C28.1222 131.71 28.4006 131.389 28.6193 131.116C28.8381 130.841 29 130.582 29.1051 130.341C29.2131 130.097 29.267 129.841 29.267 129.574C29.267 129.267 29.1932 129.001 29.0455 128.777C28.9006 128.553 28.7017 128.379 28.4489 128.257C28.196 128.135 27.9119 128.074 27.5966 128.074C27.2614 128.074 26.9688 128.143 26.7188 128.283C26.4716 128.419 26.2798 128.611 26.1435 128.858C26.0099 129.105 25.9432 129.395 25.9432 129.727H24.9375C24.9375 129.216 25.0554 128.767 25.2912 128.381C25.527 127.994 25.848 127.693 26.2543 127.477C26.6634 127.261 27.1222 127.153 27.6307 127.153C28.142 127.153 28.5952 127.261 28.9901 127.477C29.3849 127.693 29.6946 127.984 29.919 128.351C30.1435 128.717 30.2557 129.125 30.2557 129.574C30.2557 129.895 30.1974 130.209 30.081 130.516C29.9673 130.82 29.7685 131.159 29.4844 131.534C29.2031 131.906 28.8125 132.361 28.3125 132.898L26.3523 134.994V135.062H30.4091V136H24.9034ZM35.0156 136.119C34.3736 136.119 33.8267 135.945 33.375 135.595C32.9233 135.243 32.5781 134.733 32.3395 134.065C32.1009 133.395 31.9815 132.585 31.9815 131.636C31.9815 130.693 32.1009 129.888 32.3395 129.22C32.581 128.55 32.9276 128.038 33.3793 127.686C33.8338 127.331 34.3793 127.153 35.0156 127.153C35.652 127.153 36.196 127.331 36.6477 127.686C37.1023 128.038 37.4489 128.55 37.6875 129.22C37.929 129.888 38.0497 130.693 38.0497 131.636C38.0497 132.585 37.9304 133.395 37.6918 134.065C37.4531 134.733 37.108 135.243 36.6562 135.595C36.2045 135.945 35.6577 136.119 35.0156 136.119ZM35.0156 135.182C35.652 135.182 36.1463 134.875 36.4986 134.261C36.8509 133.648 37.027 132.773 37.027 131.636C37.027 130.881 36.946 130.237 36.7841 129.706C36.625 129.175 36.3949 128.77 36.0938 128.491C35.7955 128.213 35.4361 128.074 35.0156 128.074C34.3849 128.074 33.892 128.385 33.5369 129.007C33.1818 129.626 33.0043 130.503 33.0043 131.636C33.0043 132.392 33.0838 133.034 33.2429 133.562C33.402 134.091 33.6307 134.493 33.929 134.768C34.2301 135.044 34.5923 135.182 35.0156 135.182ZM42.5156 136.119C41.8736 136.119 41.3267 135.945 40.875 135.595C40.4233 135.243 40.0781 134.733 39.8395 134.065C39.6009 133.395 39.4815 132.585 39.4815 131.636C39.4815 130.693 39.6009 129.888 39.8395 129.22C40.081 128.55 40.4276 128.038 40.8793 127.686C41.3338 127.331 41.8793 127.153 42.5156 127.153C43.152 127.153 43.696 127.331 44.1477 127.686C44.6023 128.038 44.9489 128.55 45.1875 129.22C45.429 129.888 45.5497 130.693 45.5497 131.636C45.5497 132.585 45.4304 133.395 45.1918 134.065C44.9531 134.733 44.608 135.243 44.1562 135.595C43.7045 135.945 43.1577 136.119 42.5156 136.119ZM42.5156 135.182C43.152 135.182 43.6463 134.875 43.9986 134.261C44.3509 133.648 44.527 132.773 44.527 131.636C44.527 130.881 44.446 130.237 44.2841 129.706C44.125 129.175 43.8949 128.77 43.5938 128.491C43.2955 128.213 42.9361 128.074 42.5156 128.074C41.8849 128.074 41.392 128.385 41.0369 129.007C40.6818 129.626 40.5043 130.503 40.5043 131.636C40.5043 132.392 40.5838 133.034 40.7429 133.562C40.902 134.091 41.1307 134.493 41.429 134.768C41.7301 135.044 42.0923 135.182 42.5156 135.182Z" fill="#9D9FA2"/>
<path d="M27.9716 187.273V196H26.9148V188.381H26.8636L24.733 189.795V188.722L26.9148 187.273H27.9716ZM33.3281 196.119C32.6861 196.119 32.1392 195.945 31.6875 195.595C31.2358 195.243 30.8906 194.733 30.652 194.065C30.4134 193.395 30.294 192.585 30.294 191.636C30.294 190.693 30.4134 189.888 30.652 189.22C30.8935 188.55 31.2401 188.038 31.6918 187.686C32.1463 187.331 32.6918 187.153 33.3281 187.153C33.9645 187.153 34.5085 187.331 34.9602 187.686C35.4148 188.038 35.7614 188.55 36 189.22C36.2415 189.888 36.3622 190.693 36.3622 191.636C36.3622 192.585 36.2429 193.395 36.0043 194.065C35.7656 194.733 35.4205 195.243 34.9688 195.595C34.517 195.945 33.9702 196.119 33.3281 196.119ZM33.3281 195.182C33.9645 195.182 34.4588 194.875 34.8111 194.261C35.1634 193.648 35.3395 192.773 35.3395 191.636C35.3395 190.881 35.2585 190.237 35.0966 189.706C34.9375 189.175 34.7074 188.77 34.4062 188.491C34.108 188.213 33.7486 188.074 33.3281 188.074C32.6974 188.074 32.2045 188.385 31.8494 189.007C31.4943 189.626 31.3168 190.503 31.3168 191.636C31.3168 192.392 31.3963 193.034 31.5554 193.562C31.7145 194.091 31.9432 194.493 32.2415 194.768C32.5426 195.044 32.9048 195.182 33.3281 195.182ZM40.8281 196.119C40.1861 196.119 39.6392 195.945 39.1875 195.595C38.7358 195.243 38.3906 194.733 38.152 194.065C37.9134 193.395 37.794 192.585 37.794 191.636C37.794 190.693 37.9134 189.888 38.152 189.22C38.3935 188.55 38.7401 188.038 39.1918 187.686C39.6463 187.331 40.1918 187.153 40.8281 187.153C41.4645 187.153 42.0085 187.331 42.4602 187.686C42.9148 188.038 43.2614 188.55 43.5 189.22C43.7415 189.888 43.8622 190.693 43.8622 191.636C43.8622 192.585 43.7429 193.395 43.5043 194.065C43.2656 194.733 42.9205 195.243 42.4688 195.595C42.017 195.945 41.4702 196.119 40.8281 196.119ZM40.8281 195.182C41.4645 195.182 41.9588 194.875 42.3111 194.261C42.6634 193.648 42.8395 192.773 42.8395 191.636C42.8395 190.881 42.7585 190.237 42.5966 189.706C42.4375 189.175 42.2074 188.77 41.9062 188.491C41.608 188.213 41.2486 188.074 40.8281 188.074C40.1974 188.074 39.7045 188.385 39.3494 189.007C38.9943 189.626 38.8168 190.503 38.8168 191.636C38.8168 192.392 38.8963 193.034 39.0554 193.562C39.2145 194.091 39.4432 194.493 39.7415 194.768C40.0426 195.044 40.4048 195.182 40.8281 195.182Z" fill="#9D9FA2"/>
<path d="M27.75 256.119C27.108 256.119 26.5611 255.945 26.1094 255.595C25.6577 255.243 25.3125 254.733 25.0739 254.065C24.8352 253.395 24.7159 252.585 24.7159 251.636C24.7159 250.693 24.8352 249.888 25.0739 249.22C25.3153 248.55 25.6619 248.038 26.1136 247.686C26.5682 247.331 27.1136 247.153 27.75 247.153C28.3864 247.153 28.9304 247.331 29.3821 247.686C29.8366 248.038 30.1832 248.55 30.4219 249.22C30.6634 249.888 30.7841 250.693 30.7841 251.636C30.7841 252.585 30.6648 253.395 30.4261 254.065C30.1875 254.733 29.8423 255.243 29.3906 255.595C28.9389 255.945 28.392 256.119 27.75 256.119ZM27.75 255.182C28.3864 255.182 28.8807 254.875 29.233 254.261C29.5852 253.648 29.7614 252.773 29.7614 251.636C29.7614 250.881 29.6804 250.237 29.5185 249.706C29.3594 249.175 29.1293 248.77 28.8281 248.491C28.5298 248.213 28.1705 248.074 27.75 248.074C27.1193 248.074 26.6264 248.385 26.2713 249.007C25.9162 249.626 25.7386 250.503 25.7386 251.636C25.7386 252.392 25.8182 253.034 25.9773 253.562C26.1364 254.091 26.3651 254.493 26.6634 254.768C26.9645 255.044 27.3267 255.182 27.75 255.182Z" fill="#9D9FA2"/>
<path d="M83.0073 275.455C82.9561 275.023 82.7488 274.688 82.3851 274.449C82.0215 274.21 81.5755 274.091 81.0471 274.091C80.6607 274.091 80.3226 274.153 80.0328 274.278C79.7459 274.403 79.5215 274.575 79.3596 274.794C79.2005 275.013 79.1209 275.261 79.1209 275.54C79.1209 275.773 79.1763 275.973 79.2871 276.141C79.4007 276.305 79.5456 276.443 79.7218 276.554C79.8979 276.662 80.0826 276.751 80.2757 276.822C80.4689 276.891 80.6465 276.946 80.8084 276.989L81.6948 277.227C81.9221 277.287 82.1749 277.369 82.4533 277.474C82.7346 277.58 83.003 277.723 83.2587 277.905C83.5172 278.084 83.7303 278.314 83.8979 278.595C84.0655 278.876 84.1493 279.222 84.1493 279.631C84.1493 280.102 84.0257 280.528 83.7786 280.909C83.5343 281.29 83.1763 281.592 82.7047 281.817C82.236 282.041 81.6664 282.153 80.9959 282.153C80.3709 282.153 79.8297 282.053 79.3723 281.851C78.9178 281.649 78.5598 281.368 78.2985 281.007C78.04 280.646 77.8936 280.227 77.8596 279.75H78.9505C78.9789 280.08 79.0897 280.352 79.2828 280.568C79.4789 280.781 79.726 280.94 80.0243 281.045C80.3255 281.148 80.6493 281.199 80.9959 281.199C81.3993 281.199 81.7615 281.134 82.0826 281.003C82.4036 280.869 82.6578 280.685 82.8453 280.449C83.0328 280.21 83.1266 279.932 83.1266 279.614C83.1266 279.324 83.0456 279.088 82.8837 278.906C82.7218 278.724 82.5087 278.577 82.2445 278.463C81.9803 278.349 81.6948 278.25 81.388 278.165L80.3141 277.858C79.6323 277.662 79.0925 277.382 78.6948 277.018C78.2971 276.655 78.0982 276.179 78.0982 275.591C78.0982 275.102 78.2303 274.676 78.4945 274.312C78.7615 273.946 79.1195 273.662 79.5684 273.46C80.0201 273.256 80.5243 273.153 81.0811 273.153C81.6436 273.153 82.1436 273.254 82.5811 273.456C83.0186 273.655 83.3652 273.928 83.6209 274.274C83.8794 274.621 84.0158 275.014 84.03 275.455H83.0073ZM89.8755 279.324V275.455H90.8812V282H89.8755V280.892H89.8074C89.6539 281.224 89.4153 281.507 89.0914 281.74C88.7676 281.97 88.3585 282.085 87.8642 282.085C87.4551 282.085 87.0914 281.996 86.7733 281.817C86.4551 281.635 86.2051 281.362 86.0233 280.999C85.8414 280.632 85.7505 280.17 85.7505 279.614V275.455H86.7562V279.545C86.7562 280.023 86.8897 280.403 87.1568 280.688C87.4267 280.972 87.7704 281.114 88.188 281.114C88.438 281.114 88.6923 281.05 88.9508 280.922C89.2122 280.794 89.4309 280.598 89.6071 280.334C89.786 280.07 89.8755 279.733 89.8755 279.324ZM93.7289 278.062V282H92.7232V275.455H93.6948V276.477H93.78C93.9334 276.145 94.1664 275.878 94.4789 275.676C94.7914 275.472 95.1948 275.369 95.6891 275.369C96.1323 275.369 96.5201 275.46 96.8525 275.642C97.1848 275.821 97.4434 276.094 97.628 276.46C97.8127 276.824 97.905 277.284 97.905 277.841V282H96.8993V277.909C96.8993 277.395 96.7658 276.994 96.4988 276.707C96.2317 276.418 95.8652 276.273 95.3993 276.273C95.0783 276.273 94.7914 276.342 94.5385 276.482C94.2885 276.621 94.0911 276.824 93.9462 277.091C93.8013 277.358 93.7289 277.682 93.7289 278.062Z" fill="#9D9FA2"/>
<path d="M245.796 273.273H247.057L250.023 280.517H250.125L253.091 273.273H254.353V282H253.364V275.369H253.279L250.551 282H249.597L246.87 275.369H246.784V282H245.796V273.273ZM258.994 282.136C258.403 282.136 257.885 281.996 257.439 281.714C256.996 281.433 256.649 281.04 256.399 280.534C256.152 280.028 256.028 279.437 256.028 278.761C256.028 278.08 256.152 277.484 256.399 276.976C256.649 276.467 256.996 276.072 257.439 275.791C257.885 275.51 258.403 275.369 258.994 275.369C259.585 275.369 260.102 275.51 260.545 275.791C260.991 276.072 261.338 276.467 261.585 276.976C261.835 277.484 261.96 278.08 261.96 278.761C261.96 279.437 261.835 280.028 261.585 280.534C261.338 281.04 260.991 281.433 260.545 281.714C260.102 281.996 259.585 282.136 258.994 282.136ZM258.994 281.233C259.443 281.233 259.812 281.118 260.102 280.888C260.392 280.658 260.606 280.355 260.746 279.98C260.885 279.605 260.955 279.199 260.955 278.761C260.955 278.324 260.885 277.916 260.746 277.538C260.606 277.161 260.392 276.855 260.102 276.622C259.812 276.389 259.443 276.273 258.994 276.273C258.545 276.273 258.176 276.389 257.886 276.622C257.597 276.855 257.382 277.161 257.243 277.538C257.104 277.916 257.034 278.324 257.034 278.761C257.034 279.199 257.104 279.605 257.243 279.98C257.382 280.355 257.597 280.658 257.886 280.888C258.176 281.118 258.545 281.233 258.994 281.233ZM264.501 278.062V282H263.495V275.455H264.467V276.477H264.552C264.706 276.145 264.939 275.878 265.251 275.676C265.564 275.472 265.967 275.369 266.461 275.369C266.904 275.369 267.292 275.46 267.625 275.642C267.957 275.821 268.216 276.094 268.4 276.46C268.585 276.824 268.677 277.284 268.677 277.841V282H267.671V277.909C267.671 277.395 267.538 276.994 267.271 276.707C267.004 276.418 266.637 276.273 266.171 276.273C265.85 276.273 265.564 276.342 265.311 276.482C265.061 276.621 264.863 276.824 264.718 277.091C264.573 277.358 264.501 277.682 264.501 278.062Z" fill="#9D9FA2"/>
<path d="M416.03 274.21V273.273H422.576V274.21H419.831V282H418.774V274.21H416.03ZM427.305 279.324V275.455H428.31V282H427.305V280.892H427.236C427.083 281.224 426.844 281.507 426.521 281.74C426.197 281.97 425.788 282.085 425.293 282.085C424.884 282.085 424.521 281.996 424.202 281.817C423.884 281.635 423.634 281.362 423.452 280.999C423.271 280.632 423.18 280.17 423.18 279.614V275.455H424.185V279.545C424.185 280.023 424.319 280.403 424.586 280.688C424.856 280.972 425.199 281.114 425.617 281.114C425.867 281.114 426.121 281.05 426.38 280.922C426.641 280.794 426.86 280.598 427.036 280.334C427.215 280.07 427.305 279.733 427.305 279.324ZM432.897 282.136C432.266 282.136 431.722 281.997 431.264 281.719C430.81 281.438 430.459 281.045 430.212 280.543C429.968 280.037 429.845 279.449 429.845 278.778C429.845 278.108 429.968 277.517 430.212 277.006C430.459 276.491 430.803 276.091 431.243 275.804C431.686 275.514 432.203 275.369 432.794 275.369C433.135 275.369 433.472 275.426 433.804 275.54C434.137 275.653 434.439 275.838 434.712 276.094C434.985 276.347 435.202 276.682 435.364 277.099C435.526 277.517 435.607 278.031 435.607 278.642V279.068H430.561V278.199H434.584C434.584 277.83 434.51 277.5 434.362 277.21C434.218 276.92 434.01 276.692 433.74 276.524C433.473 276.357 433.158 276.273 432.794 276.273C432.394 276.273 432.047 276.372 431.755 276.571C431.465 276.767 431.242 277.023 431.086 277.338C430.929 277.653 430.851 277.991 430.851 278.352V278.932C430.851 279.426 430.936 279.845 431.107 280.189C431.28 280.53 431.52 280.79 431.827 280.969C432.134 281.145 432.49 281.233 432.897 281.233C433.161 281.233 433.399 281.196 433.612 281.122C433.828 281.045 434.014 280.932 434.171 280.781C434.327 280.628 434.448 280.437 434.533 280.21L435.505 280.483C435.402 280.812 435.23 281.102 434.989 281.352C434.747 281.599 434.449 281.793 434.094 281.932C433.739 282.068 433.34 282.136 432.897 282.136Z" fill="#9D9FA2"/>
<path d="M585.033 282L582.646 273.273H583.72L585.544 280.381H585.629L587.487 273.273H588.68L590.538 280.381H590.624L592.447 273.273H593.521L591.135 282H590.044L588.118 275.045H588.05L586.124 282H585.033ZM596.837 282.136C596.206 282.136 595.662 281.997 595.205 281.719C594.75 281.438 594.399 281.045 594.152 280.543C593.908 280.037 593.786 279.449 593.786 278.778C593.786 278.108 593.908 277.517 594.152 277.006C594.399 276.491 594.743 276.091 595.183 275.804C595.626 275.514 596.143 275.369 596.734 275.369C597.075 275.369 597.412 275.426 597.744 275.54C598.077 275.653 598.379 275.838 598.652 276.094C598.925 276.347 599.142 276.682 599.304 277.099C599.466 277.517 599.547 278.031 599.547 278.642V279.068H594.501V278.199H598.524C598.524 277.83 598.45 277.5 598.303 277.21C598.158 276.92 597.95 276.692 597.68 276.524C597.413 276.357 597.098 276.273 596.734 276.273C596.334 276.273 595.987 276.372 595.695 276.571C595.405 276.767 595.182 277.023 595.026 277.338C594.869 277.653 594.791 277.991 594.791 278.352V278.932C594.791 279.426 594.876 279.845 595.047 280.189C595.22 280.53 595.46 280.79 595.767 280.969C596.074 281.145 596.43 281.233 596.837 281.233C597.101 281.233 597.339 281.196 597.553 281.122C597.768 281.045 597.955 280.932 598.111 280.781C598.267 280.628 598.388 280.437 598.473 280.21L599.445 280.483C599.342 280.812 599.17 281.102 598.929 281.352C598.688 281.599 598.389 281.793 598.034 281.932C597.679 282.068 597.28 282.136 596.837 282.136ZM603.548 282.136C603.003 282.136 602.521 281.999 602.104 281.723C601.686 281.445 601.359 281.053 601.124 280.547C600.888 280.038 600.77 279.438 600.77 278.744C600.77 278.057 600.888 277.46 601.124 276.955C601.359 276.449 601.688 276.058 602.108 275.783C602.528 275.507 603.014 275.369 603.565 275.369C603.991 275.369 604.328 275.44 604.575 275.582C604.825 275.722 605.016 275.881 605.146 276.06C605.28 276.236 605.384 276.381 605.457 276.494H605.543V273.273H606.548V282H605.577V280.994H605.457C605.384 281.114 605.278 281.264 605.142 281.446C605.006 281.625 604.811 281.786 604.558 281.928C604.305 282.067 603.969 282.136 603.548 282.136ZM603.685 281.233C604.088 281.233 604.429 281.128 604.707 280.918C604.986 280.705 605.197 280.411 605.342 280.036C605.487 279.658 605.56 279.222 605.56 278.727C605.56 278.239 605.489 277.811 605.347 277.445C605.205 277.075 604.994 276.788 604.716 276.584C604.438 276.376 604.094 276.273 603.685 276.273C603.259 276.273 602.903 276.382 602.619 276.601C602.338 276.817 602.126 277.111 601.984 277.483C601.845 277.852 601.776 278.267 601.776 278.727C601.776 279.193 601.847 279.616 601.989 279.997C602.134 280.375 602.347 280.676 602.628 280.901C602.912 281.122 603.264 281.233 603.685 281.233Z" fill="#9D9FA2"/>
<path d="M754.365 274.21V273.273H760.911V274.21H758.167V282H757.11V274.21H754.365ZM763.411 278.062V282H762.406V273.273H763.411V276.477H763.496C763.65 276.139 763.88 275.871 764.187 275.672C764.496 275.47 764.908 275.369 765.423 275.369C765.869 275.369 766.259 275.459 766.594 275.638C766.93 275.814 767.19 276.085 767.374 276.452C767.562 276.815 767.656 277.278 767.656 277.841V282H766.65V277.909C766.65 277.389 766.515 276.987 766.245 276.703C765.978 276.416 765.607 276.273 765.133 276.273C764.803 276.273 764.508 276.342 764.246 276.482C763.988 276.621 763.783 276.824 763.633 277.091C763.485 277.358 763.411 277.682 763.411 278.062ZM773.62 279.324V275.455H774.626V282H773.62V280.892H773.552C773.399 281.224 773.16 281.507 772.836 281.74C772.512 281.97 772.103 282.085 771.609 282.085C771.2 282.085 770.836 281.996 770.518 281.817C770.2 281.635 769.95 281.362 769.768 280.999C769.586 280.632 769.495 280.17 769.495 279.614V275.455H770.501V279.545C770.501 280.023 770.635 280.403 770.902 280.688C771.171 280.972 771.515 281.114 771.933 281.114C772.183 281.114 772.437 281.05 772.696 280.922C772.957 280.794 773.176 280.598 773.352 280.334C773.531 280.07 773.62 279.733 773.62 279.324Z" fill="#9D9FA2"/>
<path d="M922.748 282V273.273H927.981V274.21H923.804V277.159H927.589V278.097H923.804V282H922.748ZM929.584 282V275.455H930.555V276.443H930.624C930.743 276.119 930.959 275.857 931.271 275.655C931.584 275.453 931.936 275.352 932.328 275.352C932.402 275.352 932.494 275.354 932.605 275.357C932.716 275.359 932.8 275.364 932.857 275.369V276.392C932.823 276.384 932.744 276.371 932.622 276.354C932.503 276.334 932.377 276.324 932.243 276.324C931.925 276.324 931.641 276.391 931.391 276.524C931.144 276.655 930.948 276.837 930.803 277.07C930.661 277.3 930.59 277.562 930.59 277.858V282H929.584ZM934.049 282V275.455H935.054V282H934.049ZM934.56 274.364C934.364 274.364 934.195 274.297 934.053 274.163C933.914 274.03 933.844 273.869 933.844 273.682C933.844 273.494 933.914 273.334 934.053 273.2C934.195 273.067 934.364 273 934.56 273C934.756 273 934.924 273.067 935.063 273.2C935.205 273.334 935.276 273.494 935.276 273.682C935.276 273.869 935.205 274.03 935.063 274.163C934.924 274.297 934.756 274.364 934.56 274.364Z" fill="#9D9FA2"/>
<path d="M1087.94 275.455C1087.89 275.023 1087.68 274.688 1087.32 274.449C1086.96 274.21 1086.51 274.091 1085.98 274.091C1085.6 274.091 1085.26 274.153 1084.97 274.278C1084.68 274.403 1084.46 274.575 1084.3 274.794C1084.14 275.013 1084.06 275.261 1084.06 275.54C1084.06 275.773 1084.11 275.973 1084.22 276.141C1084.34 276.305 1084.48 276.443 1084.66 276.554C1084.83 276.662 1085.02 276.751 1085.21 276.822C1085.4 276.891 1085.58 276.946 1085.74 276.989L1086.63 277.227C1086.86 277.287 1087.11 277.369 1087.39 277.474C1087.67 277.58 1087.94 277.723 1088.19 277.905C1088.45 278.084 1088.67 278.314 1088.83 278.595C1089 278.876 1089.08 279.222 1089.08 279.631C1089.08 280.102 1088.96 280.528 1088.71 280.909C1088.47 281.29 1088.11 281.592 1087.64 281.817C1087.17 282.041 1086.6 282.153 1085.93 282.153C1085.31 282.153 1084.77 282.053 1084.31 281.851C1083.85 281.649 1083.5 281.368 1083.23 281.007C1082.98 280.646 1082.83 280.227 1082.8 279.75H1083.89C1083.91 280.08 1084.03 280.352 1084.22 280.568C1084.41 280.781 1084.66 280.94 1084.96 281.045C1085.26 281.148 1085.58 281.199 1085.93 281.199C1086.33 281.199 1086.7 281.134 1087.02 281.003C1087.34 280.869 1087.59 280.685 1087.78 280.449C1087.97 280.21 1088.06 279.932 1088.06 279.614C1088.06 279.324 1087.98 279.088 1087.82 278.906C1087.66 278.724 1087.44 278.577 1087.18 278.463C1086.92 278.349 1086.63 278.25 1086.32 278.165L1085.25 277.858C1084.57 277.662 1084.03 277.382 1083.63 277.018C1083.23 276.655 1083.03 276.179 1083.03 275.591C1083.03 275.102 1083.17 274.676 1083.43 274.312C1083.7 273.946 1084.06 273.662 1084.5 273.46C1084.96 273.256 1085.46 273.153 1086.02 273.153C1086.58 273.153 1087.08 273.254 1087.52 273.456C1087.95 273.655 1088.3 273.928 1088.56 274.274C1088.81 274.621 1088.95 275.014 1088.97 275.455H1087.94ZM1092.61 282.153C1092.2 282.153 1091.82 282.075 1091.48 281.919C1091.14 281.76 1090.88 281.531 1090.68 281.233C1090.48 280.932 1090.38 280.568 1090.38 280.142C1090.38 279.767 1090.45 279.463 1090.6 279.23C1090.75 278.994 1090.95 278.81 1091.19 278.676C1091.44 278.543 1091.71 278.443 1092.01 278.378C1092.31 278.31 1092.62 278.256 1092.92 278.216C1093.32 278.165 1093.64 278.126 1093.89 278.101C1094.14 278.072 1094.32 278.026 1094.43 277.96C1094.55 277.895 1094.61 277.781 1094.61 277.619V277.585C1094.61 277.165 1094.49 276.838 1094.26 276.605C1094.03 276.372 1093.69 276.256 1093.23 276.256C1092.75 276.256 1092.37 276.361 1092.1 276.571C1091.82 276.781 1091.63 277.006 1091.52 277.244L1090.57 276.903C1090.74 276.506 1090.96 276.196 1091.25 275.974C1091.54 275.75 1091.85 275.594 1092.19 275.506C1092.53 275.415 1092.86 275.369 1093.19 275.369C1093.4 275.369 1093.64 275.395 1093.92 275.446C1094.19 275.494 1094.46 275.595 1094.71 275.749C1094.97 275.902 1095.19 276.134 1095.36 276.443C1095.53 276.753 1095.61 277.168 1095.61 277.688V282H1094.61V281.114H1094.56C1094.49 281.256 1094.37 281.408 1094.21 281.57C1094.06 281.732 1093.84 281.869 1093.58 281.983C1093.32 282.097 1092.99 282.153 1092.61 282.153ZM1092.77 281.25C1093.16 281.25 1093.5 281.172 1093.77 281.016C1094.05 280.859 1094.25 280.658 1094.39 280.411C1094.54 280.163 1094.61 279.903 1094.61 279.631V278.71C1094.56 278.761 1094.47 278.808 1094.33 278.851C1094.18 278.891 1094.02 278.926 1093.83 278.957C1093.65 278.986 1093.47 279.011 1093.29 279.034C1093.12 279.054 1092.98 279.071 1092.87 279.085C1092.61 279.119 1092.36 279.175 1092.13 279.251C1091.91 279.325 1091.73 279.437 1091.59 279.588C1091.45 279.736 1091.38 279.937 1091.38 280.193C1091.38 280.543 1091.51 280.807 1091.77 280.986C1092.03 281.162 1092.37 281.25 1092.77 281.25ZM1100.29 275.455V276.307H1096.9V275.455H1100.29ZM1097.89 273.886H1098.9V280.125C1098.9 280.409 1098.94 280.622 1099.02 280.764C1099.11 280.903 1099.21 280.997 1099.34 281.045C1099.48 281.091 1099.62 281.114 1099.77 281.114C1099.88 281.114 1099.97 281.108 1100.04 281.097C1100.11 281.082 1100.17 281.071 1100.21 281.062L1100.41 281.966C1100.35 281.991 1100.25 282.017 1100.13 282.043C1100.01 282.071 1099.85 282.085 1099.66 282.085C1099.38 282.085 1099.1 282.024 1098.83 281.902C1098.56 281.78 1098.33 281.594 1098.16 281.344C1097.98 281.094 1097.89 280.778 1097.89 280.398V273.886Z" fill="#9D9FA2"/>
<path d="M77 136.467C104.754 131.132 276.864 147.139 310.944 126.576C353.543 100.872 387.273 18.3263 425.659 64.69C466.82 114.404 536.415 -41.8767 593.461 14.4136C619.234 39.8459 674.746 118.038 729.546 118.038C774.082 118.038 774.019 44.4106 863.091 44.4106C952.163 44.4106 944.157 136.467 1101 136.467" stroke="#20C997" stroke-width="3"/>
<path d="M310.944 126.576C276.864 147.139 104.754 131.132 77 136.467V242H1101V136.467C944.156 136.467 952.163 44.4106 863.091 44.4106C774.019 44.4106 774.082 118.038 729.546 118.038C674.746 118.038 619.234 39.8459 593.461 14.4136C536.415 -41.8767 466.82 114.404 425.66 64.69C387.273 18.3263 353.543 100.872 310.944 126.576Z" fill="url(#paint0_linear_1_280)"/>
<path d="M201.179 117.52C167.555 133.621 104.383 146.001 77 150.178V242H1101V93.9769C946.254 93.9769 944.343 190.43 856.463 190.43C768.582 190.43 764.761 86.5901 720.821 86.5901C676.881 86.5901 688.343 165.367 587.09 161.95C485.836 158.532 436.164 124.735 375.03 93.9769C314.225 63.3839 243.97 97.0283 201.86 117.194L201.179 117.52Z" fill="url(#paint1_linear_1_280)"/>
<path d="M77 150.178C104.383 146.001 167.555 133.621 201.179 117.52C243.209 97.3945 313.896 63.2183 375.03 93.9769C436.164 124.735 485.836 158.532 587.09 161.95C688.343 165.367 676.881 87.0819 720.821 87.0819C764.761 87.0819 768.582 190.43 856.463 190.43C944.343 190.43 946.254 93.9769 1101 93.9769" stroke="#679CF6" stroke-width="3"/>
<defs>
<linearGradient id="paint0_linear_1_280" x1="589" y1="2" x2="589" y2="242" gradientUnits="userSpaceOnUse">
<stop stop-color="#20C997" stop-opacity="0.13"/>
<stop offset="1" stop-color="#20C997" stop-opacity="0"/>
</linearGradient>
<linearGradient id="paint1_linear_1_280" x1="589" y1="81.6724" x2="589" y2="242" gradientUnits="userSpaceOnUse">
<stop stop-color="#4285F4" stop-opacity="0.25"/>
<stop offset="1" stop-color="#4285F4" stop-opacity="0"/>
</linearGradient>
</defs>
</svg>
